<svg width="900" height="209" viewBox="0 0 900 209" fill="none" xmlns="http://www.w3.org/2000/svg">
<path d="M256.259 156.825L262.857 166H257.445L251.414 157.495H245.847V166H241.569V140.794H250.95C254.765 140.794 257.496 141.447 259.146 142.753C260.83 144.024 261.672 146.103 261.672 148.99C261.672 153.148 259.868 155.759 256.259 156.825ZM251.105 153.68C253.476 153.68 255.108 153.32 256.002 152.598C256.895 151.876 257.342 150.656 257.342 148.938C257.342 147.289 256.895 146.172 256.002 145.588C255.108 144.969 253.51 144.66 251.208 144.66H245.847V153.68H251.105ZM295.57 140.794V144.763H282.117V151.464H294.178V155.227H282.117V161.979H295.982V166H277.838V140.794H295.57ZM311.422 140.794H315.7V166H311.422V140.794ZM340.539 158.938L346.158 140.794H349.972L355.591 158.938L361.931 140.794H366.519L357.704 166H353.477L348.22 148.732H347.91L342.601 166H338.374L329.56 140.794H334.147L340.539 158.938ZM384.051 160.278L381.525 166H376.989L388.123 140.794H392.659L403.742 166H399.206L396.68 160.278H384.051ZM394.979 156.309L390.391 145.948L385.804 156.309H394.979ZM454.639 153.732H458.865V162.34C456.494 164.986 453.092 166.309 448.659 166.309C444.913 166.309 441.786 165.072 439.278 162.598C436.769 160.124 435.515 157.031 435.515 153.32C435.515 149.608 436.786 146.498 439.329 143.99C441.907 141.447 445.017 140.175 448.659 140.175C452.302 140.175 455.326 141.223 457.731 143.32L455.463 146.567C453.711 145.089 451.563 144.351 449.02 144.351C446.443 144.351 444.278 145.192 442.525 146.876C440.807 148.526 439.948 150.674 439.948 153.32C439.948 155.966 440.773 158.113 442.422 159.763C444.106 161.378 446.185 162.186 448.659 162.186C451.065 162.186 453.058 161.67 454.639 160.639V153.732ZM477.962 157.753V166H473.941V146.825H477.962V150.639C478.615 149.436 479.491 148.457 480.591 147.701C481.725 146.945 482.91 146.55 484.147 146.515L484.199 150.588H483.993C482.034 150.588 480.539 151.223 479.508 152.495C478.477 153.766 477.962 155.519 477.962 157.753ZM513.763 166H510.103V163.423C508.488 165.347 506.358 166.309 503.712 166.309C501.684 166.309 500.017 165.742 498.712 164.608C497.44 163.44 496.804 161.928 496.804 160.072C496.804 158.216 497.492 156.808 498.866 155.845C500.241 154.883 502.131 154.402 504.536 154.402H509.794V153.68C509.794 151.137 508.368 149.866 505.516 149.866C503.729 149.866 501.873 150.519 499.949 151.825L498.145 149.299C500.516 147.443 503.162 146.515 506.083 146.515C508.454 146.515 510.327 147.117 511.701 148.32C513.076 149.488 513.763 151.258 513.763 153.629V166ZM509.743 157.237H505.206C502.286 157.237 500.825 158.148 500.825 159.969C500.825 160.897 501.186 161.619 501.908 162.134C502.629 162.615 503.643 162.856 504.949 162.856C506.289 162.856 507.423 162.495 508.351 161.773C509.279 161.017 509.743 160.038 509.743 158.835V157.237ZM549.078 156.309C549.078 159.196 548.185 161.584 546.398 163.474C544.611 165.364 542.48 166.309 540.006 166.309C537.566 166.309 535.384 165.244 533.46 163.113V173.01H529.439V146.825H533.46V150.175C535.075 147.735 537.154 146.515 539.697 146.515C542.343 146.515 544.559 147.426 546.346 149.247C548.168 151.069 549.078 153.423 549.078 156.309ZM539.078 162.701C540.728 162.701 542.12 162.117 543.254 160.948C544.422 159.746 545.006 158.234 545.006 156.412C545.006 154.591 544.422 153.079 543.254 151.876C542.12 150.674 540.745 150.072 539.13 150.072C537.515 150.072 536.157 150.691 535.058 151.928C533.958 153.131 533.408 154.625 533.408 156.412C533.408 158.234 533.958 159.746 535.058 160.948C536.157 162.117 537.498 162.701 539.078 162.701ZM567.678 166H563.658V139.247H567.678V150.278C568.263 149.11 569.139 148.199 570.307 147.546C571.476 146.859 572.73 146.515 574.07 146.515C576.304 146.515 578.074 147.186 579.38 148.526C580.685 149.866 581.338 151.773 581.338 154.247V166H577.266V155.485C577.266 151.945 575.806 150.175 572.885 150.175C571.407 150.175 570.17 150.656 569.173 151.619C568.177 152.546 567.678 153.869 567.678 155.588V166ZM600.97 166H596.949V146.825H600.97V166ZM596.433 141.155C596.433 140.467 596.674 139.883 597.155 139.402C597.671 138.887 598.289 138.629 599.011 138.629C599.698 138.629 600.282 138.887 600.763 139.402C601.279 139.883 601.537 140.467 601.537 141.155C601.537 141.876 601.279 142.495 600.763 143.01C600.282 143.491 599.698 143.732 599.011 143.732C598.289 143.732 597.688 143.474 597.207 142.959C596.691 142.478 596.433 141.876 596.433 141.155ZM615.572 156.412C615.572 153.526 616.569 151.155 618.562 149.299C620.555 147.443 623.012 146.515 625.933 146.515C628.82 146.515 631.26 147.512 633.253 149.505L630.882 152.443C629.232 151 627.565 150.278 625.882 150.278C624.163 150.278 622.686 150.845 621.449 151.979C620.246 153.079 619.645 154.505 619.645 156.258C619.645 158.045 620.246 159.557 621.449 160.794C622.686 161.997 624.198 162.598 625.985 162.598C627.772 162.598 629.473 161.79 631.088 160.175L633.459 162.753C631.019 165.124 628.321 166.309 625.366 166.309C622.617 166.309 620.297 165.399 618.407 163.577C616.517 161.722 615.572 159.333 615.572 156.412ZM654.211 166.309C651.118 166.309 648.335 165.347 645.86 163.423L647.819 160.278C650.018 161.962 652.183 162.804 654.314 162.804C655.207 162.804 655.912 162.598 656.427 162.186C656.977 161.739 657.252 161.189 657.252 160.536C657.252 159.574 655.981 158.715 653.438 157.959C653.369 157.924 653.283 157.89 653.18 157.856C653.111 157.821 653.06 157.804 653.025 157.804C649.039 156.739 647.046 154.935 647.046 152.392C647.046 150.605 647.716 149.179 649.056 148.113C650.431 147.048 652.235 146.515 654.469 146.515C656.668 146.515 658.764 147.168 660.757 148.474L659.262 151.464C657.716 150.433 656.015 149.918 654.159 149.918C651.994 149.918 650.912 150.605 650.912 151.979C650.912 152.564 651.118 152.993 651.53 153.268C651.977 153.509 652.699 153.749 653.695 153.99C655.207 154.402 656.479 154.814 657.51 155.227C658.197 155.536 658.799 155.863 659.314 156.206C660.62 157.1 661.273 158.457 661.273 160.278C661.273 162.065 660.603 163.526 659.262 164.66C657.957 165.759 656.273 166.309 654.211 166.309Z" fill="white"/>
<path d="M97 36.8C97 35.9 93.5 33.7 92.7 33.2C87.2 29.6 81 28.1 75.9 23.6C73.4 21.4 71.9 18.3 69.4 16.1C66.4 13.4 62.6 11.5 60.2 8.29999C59.3 7.1 58.1 4.19999 56.8 3.6C56.3 3.4 55.7 3.29999 55.2 3.29999C52.9 3.29999 50.5 3.4 48.2 3.1C46.2 2.9 44.2 1.8 42.2 1.8C39.5 1.8 36.9 9.6 34.6 11.7C27.2 18.5 19.4 24.9 12 31.7C9.4 34.1 2.6 36.7 1.3 38.5C1.5 39.7 3 40.7 3.9 41.4C8.2 45 7.2 44.8 9.5 49.4C9.7 49.6 10.2 50 10.5 50C11.9 50 14 48.7 15.3 48.1C17.8 46.9 20.1 45.8 22.3 44C24.2 42.4 26.3 39.3 28.5 38.4C29.8 38.9 28.9 42.5 30.1 43.9C31.7 44.5 48.3 45.7 50.8 45.7C54.4 45.7 57.9 44.4 61.5 44.4C63.2 44.4 69.6 45.4 70.2 43.6C70.6 42.4 70 40.2 71.1 39.4C75.9 40 86.6 51.4 88.8 51.4C90.5 51.4 97 39 97 36.8ZM35.8 32.4C36.7 30.4 48 16.8 49.7 16.8C50.5 16.8 50.9 17.2 51.4 17.7C53.4 19.9 55.2 22.6 57.3 24.7C59.4 26.8 62.3 28.2 63.9 30.7C61.1 31.5 57.5 31.6 54.6 31.6C51.6 31.6 48.7 31.3 45.7 31.3C42.7 31.3 39.7 32.5 36.6 32.4H35.8ZM66.6 64.1C68.6 64.1 71.9 63.8 71.9 66.6C71.9 68.4 71.7 73.6 70.4 74.9C67.9 77.4 57 76.9 57 81C57 83.3 59.6 92.2 62.2 92.2C64.7 92.2 68.9 90.7 71.5 90.1C73.5 89.6 77.9 89.9 79.3 89.2C85.9 85.9 86.2 74.3 86.2 67.9C86.2 65.1 85.3 55.1 83.8 53C83.1 52 80.9 52.2 79.8 52.2C74.6 52.2 69.4 52.6 64.2 52.6C61.4 52.6 58.6 52 55.8 51.9C51.8 51.7 47.7 51.9 43.7 51.6C40.4 51.4 36.9 50.9 33.6 50.9C29.6 50.9 25.4 52.7 21.4 52.7C19 52.7 16.5 52.2 14.1 52.2C12.6 52.2 12.4 53.5 12.4 54.7C12.4 66 12.6 65.1 23.8 65.1C26.4 65.1 28.9 64.3 31.5 64.3C35 64.3 33.8 72 33.9 73.7C34.1 77.7 35 82 35 86C35 88.8 34.6 91.6 34.6 94.4C34.6 97.7 43.8 97.4 46.1 97.4C46.7 97.4 47.4 97.3 47.9 97C49.9 95.8 49.8 84.4 49.8 82.3C49.8 77.5 48.8 72.6 48.8 67.9C48.8 65.2 56.4 64.1 58.7 64.1H66.6ZM192.5 30.1C192.5 25 193.2 19.9 193.2 14.8C193.2 11.5 183.8 12 181.3 12C177.9 12 174.5 12.5 171.1 12.5C165.3 12.5 159.4 11.3 153.6 11.3C150.3 11.3 150.1 19.4 150.1 22C150.1 27 151.7 31.9 151.7 37C151.7 42 150.2 46.9 150.2 51.8C150.2 54.1 150.6 56.3 150.6 58.5C150.6 59.3 150.6 60.1 150.4 60.9C146.2 58.4 137.5 46.5 135.9 45.9C140.7 44.5 148 48.7 148 41.7C148 22.2 135.4 42.8 135.4 21.5C135.4 15.9 148.9 17 148.9 14.1C148.9 12.7 140 4.59999 138.3 4.59999C137.4 4.59999 121.1 9.2 118.2 9.79999C113.9 10.6 109.8 10.6 105.6 11.2C104.9 11.3 104 11.6 104 12.5C104 14.2 106.6 20.9 108 21.7C109 22.3 110.5 22.3 111.7 22.3C118.5 22.3 121.2 20 121.2 27.1C121.2 28.8 121.6 32.1 119.2 32.1C115.4 32.1 111.6 31.8 107.7 31.9C102.3 32 103.3 34.5 103.3 39C103.3 46.7 103.6 45.9 110.8 46.1C111.8 46.1 117.2 46 117.2 47.4C117.2 50.2 103.3 70.6 103.3 73.4C103.3 74.6 108.2 85.6 109 86.4C114.5 81.8 116.6 74 121 68.4C121.7 70.5 121.5 74.1 121.5 76.5C121.5 80.4 120.3 84.2 120.3 88.1C120.3 98.8 121.4 98.5 131.4 98.5C132.8 98.5 136 98.7 136 96.6C136 92.5 134.8 88.6 134.8 84.5C134.8 80.8 135.2 67.9 136.7 65.1C137.7 66.4 141.5 74.5 142.8 74.5C145.3 73.5 148.2 66.8 150.4 64.5C150.9 64.5 150.9 66.2 150.9 66.6C150.9 67.7 149.9 87.9 151.5 90.4C152.5 92 155.5 91.8 157.2 91.8C158.4 91.8 161.7 92.1 163 91.4C164.4 90.6 164.7 87.2 165.3 85.7C166.2 83.4 172.3 83.7 174.4 83.7C175.7 83.7 178.3 83.5 178.3 85.3C178.3 87 177.9 88.6 177.9 90.3C177.9 90.6 178 90.9 178.1 91.2C178.4 91.4 178.9 91.6 179.2 91.6C181.7 91.6 184.1 91.4 186.6 91.4C188 91.4 189.3 91.5 190.7 91.3C193 91 192.8 83.7 192.8 81.7C192.8 78.6 192.2 75.6 192.2 72.5C192.2 68.9 193.1 65.3 193.1 61.6C193.1 55.6 192.5 49.6 192.5 43.6V30.1ZM171.6 26.1C172.9 26.1 175.2 26 176.2 26.8C177.7 28.1 178 35.2 178 37.4C178 41.2 176.8 45 176.8 48.8C176.8 52.6 177.6 56.3 177.6 60.1C177.6 62.8 177.8 70.1 174.2 70.1C169.1 70.1 165.1 71.3 165.1 65.8C165.1 56.8 165.5 47.8 165.5 38.8C165.5 35 164.6 31.4 164.6 27.7C164.6 25.8 168 26.1 169.4 26.1H171.6ZM291.1 15.9C292.2 16.2 297.8 14.1 298.2 12.9C298.2 11 290.7 1.3 288.8 1.3C287.5 1.3 283 3.2 283 4.59999C283 5.99999 288.7 15.3 289.9 15.6L291.1 15.9ZM275.5 19.1C273.7 21.4 260.4 21.4 257.9 21.4C256.4 21.4 250.6 21.9 250.6 19.7C250.6 18.1 252.8 14.4 252.8 12.5C252.8 11.8 252.3 11.3 251.7 11C250.8 10.6 238.5 6.09999 238.2 6.09999C236.4 6.09999 235.4 10.2 234.9 11.6C231.6 20.5 229.1 20.7 224.3 27.8C221.4 32.2 217.9 37.9 214.2 41.5C211.8 43.9 208.7 45.6 206.3 47.9C205.9 48.3 205.5 48.8 205.5 49.3C205.5 51 214.7 57.4 216.6 57.4C222.7 57.4 237.8 35.7 243.2 35.7C246.1 35.7 248.9 36.1 251.8 36.1C255.1 36.1 258.4 35.7 261.7 35.7C263.4 35.7 263.8 36.3 263.8 37.9C263.8 49.8 246.9 66.8 238.1 73.8C232.5 78.3 226.1 81 220.2 84.9C219.6 85.3 218.6 85.7 218.6 86.6C218.6 87.4 229.9 97.3 231.3 97.3C233.9 97.3 241.6 93.2 243.7 91.4C247.8 88 271.7 64 275.1 58C277.1 54.5 286.6 33.3 287.5 28.3C287.8 26.1 280.1 22.8 279.7 21.3C281 19.9 285 19.9 285 18C285 16 279.3 5.7 277.2 5.7C275.8 5.7 269.6 8.2 269.6 9.6C269.6 11.6 275.5 16.9 275.5 19V19.1ZM332.9 9.6C323.7 9.6 322.4 8.5 321.4 17.4C321.2 18.9 321 20.6 321 22.1C321 26.5 330.7 26 333.3 26.1C337.7 26.3 342.1 26.3 346.5 26.3C356.2 26.3 365.6 24.3 375.3 24.3C383.2 24.3 383.8 25.6 383.8 16.7C383.8 15.6 383.8 12.9 383.2 12.1C382.1 10.6 374.2 10.2 372.1 10.2C367.9 10.2 363.8 10.4 359.6 10.4C350.7 10.4 341.8 9.6 332.9 9.6ZM389.6 47C389.6 44.4 381.3 34.3 378.7 34.3C372.5 34.3 366.2 35.4 360 35.4C356.6 35.4 353.2 34.7 349.8 34.7C343.7 34.7 314.4 34.9 312.9 36C311.8 36.8 311.8 38.3 311.8 39.6C311.8 42 311.5 50.5 314.9 50.5C319.2 50.5 323.5 49.6 327.7 49.6C330.9 49.6 334.1 49.7 337.2 49.7C342.4 49.6 347.6 48.6 352.9 48.6C355 48.6 369.6 48.6 369.6 50.8C369.6 51.8 366.9 55.8 366.3 56.8C364.9 59 363.5 61.6 361.7 63.4C356.1 69.1 341.1 75.8 333.2 78.6C332 79 327.4 80.5 327.4 81.9C327.4 82.8 329.2 84.2 329.8 84.8C332.8 87.8 335 90.6 337.4 94C337.8 94.5 338.2 94.9 338.9 94.9C340.7 94.9 347.1 92 347.9 91.6C365.2 83.9 376.1 74 385.2 57C386.3 55 389.6 48.9 389.6 47ZM425.5 14.6C423.8 14.6 413.3 13.7 412 15.5C411.5 16.2 411.4 17.2 411.4 18.1C411.4 21.2 410.9 31.4 415.1 31.4C419.5 31.4 423.9 30.3 428.4 30.3C431.8 30.3 435.4 30.8 438.8 30.3C443.3 29.7 447.4 29.4 452 29.4C454.5 29.4 468.7 29.1 468.7 32.4C468.7 33.5 467.9 35.8 467.6 36.9C467 39 466.5 41.3 465.5 43.3C460.3 53.7 443.5 71.2 432.7 75.5C430.7 76.3 428.6 77 426.6 77.7C425.7 78 421.3 79.2 421.3 80.3C421.3 81.5 432.4 92.7 435.4 92.7C437.7 92.7 441.8 90.3 443.9 89.4C457.1 83.7 475.3 67.8 480.8 54.3C482.8 49.2 482.2 42.9 484.6 38C485.7 35.9 490.4 25.1 490.4 23.3C490.4 20.6 479 14 476.3 14C470.9 14 465.5 14.8 460.1 14.8C456.1 14.8 452.1 14.2 448.1 14.2C443.3 14.2 438.6 14.6 433.8 14.6H425.5ZM582.7 34.9C582.7 33.2 572 25.2 570.1 25.2C568.8 25.2 567.8 26.5 567.1 27.4C561.2 34.6 549.2 42.9 540.8 47C532.7 50.9 524.8 54.3 516.1 56.8C514.7 57.2 509.8 58.2 509.8 60C509.8 62.5 516.7 72.1 519.3 72.1C525 72.1 539.1 63.5 543.7 63.5C544.4 63.5 544.6 63.7 544.6 64.5C544.6 68 543.3 71.4 543.3 75.1C543.3 78.2 543.4 81.3 543.5 84.4C543.5 84.8 543.4 95.2 544.5 96.8C545.1 97.7 546.5 97.6 547.5 97.6C549.2 97.6 551 97.5 552.7 97.4C555.4 97.2 560.8 98 560.8 94.2C560.8 91.1 560 88 560 84.8C560 81.4 560.2 78.1 560.2 74.7C560.2 71.3 561.3 67.8 561.3 64.3C561.3 61.5 560.2 58.8 560.2 56.1C560.2 50.3 582.7 38.7 582.7 34.9ZM651.9 29.9C651 28.2 649.7 28.4 648.6 28.6C645.2 29.3 637.8 30.8 637.8 33.8C637.8 37.2 644.2 53.4 647.9 53.4C650.1 53.4 659.1 50.7 658.7 48.2C657.6 41.1 655.6 35.7 651.9 29.9ZM627.5 85.6C627.4 87.1 637.2 97.3 639 97.3C640.3 97.3 646.1 94.9 647.5 94.2C660 88.1 663.1 83.9 671.9 73.2C673.4 71.4 679.1 64.5 680.2 61.7C682.3 56.2 684 50.6 685.8 45C686.3 43.5 687.8 39.7 687.8 37.8C687.8 35.5 675.9 32.4 673.7 32.4C672.7 32.4 672 32.9 671.8 33.9C671.1 36.8 671.3 40 670.7 42.9C670 46.4 667.1 54 664.8 56.7C657.3 65.6 648 75.1 638 81.2C635 83 629.6 83.6 627.5 85.4V85.6ZM615.6 41C615.6 42.4 621.1 61.6 625 61.6C627.3 61.6 637.7 58.5 637.7 55.9C637.7 54.7 636.3 52.3 635.7 51.2C633 46.1 631.3 41 629 35.7C628.6 34.9 628.1 34.2 627.1 34.2C624.9 34.2 615.6 38.4 615.6 41ZM751.1 18.4C751.2 16.9 756.8 10.9 756.8 9.1C756.8 8.5 756.2 8.1 755.7 7.89999C751.9 6.6 747.5 5.99999 743.5 4.59999C742.8 4.4 741.4 3.9 740.7 3.9C737.5 3.9 730.5 23.2 726.3 29C723.2 33.2 719.2 37.9 714.8 40.7C712.6 42.2 710.2 43.2 708 44.8C707.5 45.2 706.9 45.7 706.9 46.4C706.9 48.1 717.5 55.2 719.5 55.2C720.8 55.2 722.7 54 723.8 53.4C725.3 52.5 727.2 51.7 728.4 50.5C733.6 45.4 736.8 40 740.9 34.2C741.3 33.6 741.8 33.1 742.5 32.8C744.1 32 746.5 32.1 748.3 32.1C750.6 32.1 765.1 32.2 766.3 33.8L766.6 34.8C766.7 35.5 765.9 38.5 765.7 39.2C762.5 51.3 752 61 743.3 69.6C740.4 72.4 732.7 76.7 728.9 78.7C727.4 79.5 720 82.4 720 84C720 85.6 732 94.7 733.9 94.7C735.5 94.7 737.7 93.6 739.2 92.9C746.4 89.8 747.1 87.2 752.6 82.3C754.8 80.3 757.8 78.8 760.3 77.1C763.1 75.2 768.1 69.9 770 67.1C771.2 65.4 772 63.3 772.9 61.4C776.7 53.6 780.3 45.8 784.2 38C785 36.4 789.8 28 789.8 27.2C789.8 25.1 778.4 18.3 775.9 18.3C774 18.3 772.3 18.8 770.4 18.9C764.9 19.3 759.2 19.5 753.7 19.5C753.1 19.5 751.9 19.5 751.4 19L751.1 18.4ZM885.2 20.5C885.2 18 875.5 12.8 872.9 12.8C865.8 12.8 858.7 14.1 851.5 14.1C848.3 14.1 845 13.5 841.8 13.5C837.7 13.5 833.6 13.9 829.5 13.9C826.4 13.9 823.4 13.4 820.3 13.4C816.7 13.4 816.4 25.1 816.4 27.6C816.4 30.4 818.9 30.7 821.1 30.7C828 30.7 834.9 29.5 841.8 29.5C844.9 29.5 848.1 29.7 851.2 29.7C853.6 29.7 855.9 28.9 858.3 28.9C858.7 28.9 859.1 29.1 859.4 29.4C859.4 31.1 857 35.5 856.1 37.2C854 41.5 850.5 48.7 847.5 52.2C841.3 59.5 823.5 70.3 814.8 75.2C813.6 75.9 806.6 79.4 806.6 80.6C806.6 81 806.8 81.4 807.1 81.7C808.7 83.6 811 85.3 812.8 87.1C814.4 88.7 815.4 90.8 817 92.5C817.4 93 818 93.2 818.6 93.2C819.4 93.2 822.1 91.6 822.9 91.1C832.7 85.2 838.9 81.4 847.1 74C848 73.2 853.5 67.7 854.8 67.7C856.8 67.7 863 75.2 863.5 75.7C866.5 78.7 869.9 81.3 872.7 84.4C874.9 86.8 876.6 89.6 878.7 92.2C879.1 92.7 879.5 93.1 880.1 93.2C882.1 93 883.9 88.5 885.6 87.2C886.8 86.2 888.1 85.3 889.5 84.5C890.5 83.9 892.5 82.8 892.5 81.5C892.5 77.2 866.5 58.1 866.5 52.1C866.5 50.7 868.3 48.8 869.2 47.7C872.5 43.7 876.6 38.9 878.9 34C880 31.7 880.7 28.9 882 26.7C882.5 25.9 885.2 21.2 885.2 20.5Z" fill="white"/>
</svg>
